<?xml version="1.0" standalone="no"?>
<!DOCTYPE svg PUBLIC "-//W3C//DTD SVG 20010904//EN"
 "http://www.w3.org/TR/2001/REC-SVG-20010904/DTD/svg10.dtd">
<svg version="1.0" xmlns="http://www.w3.org/2000/svg"
 width="430.000000pt" height="173.000000pt" viewBox="0 0 430.000000 173.000000"
 preserveAspectRatio="xMidYMid meet">

<g transform="translate(0.000000,173.000000) scale(0.100000,-0.100000)"
fill="#000000" stroke="none">
<path d="M795 1540 c-137 -19 -271 -87 -374 -191 -78 -77 -123 -150 -165 -262
-27 -74 -30 -94 -30 -207 -1 -136 14 -200 75 -320 28 -57 115 -171 135 -177 6
-2 14 10 18 28 5 26 0 39 -34 81 -48 61 -96 155 -115 228 -24 90 -20 245 10
338 56 177 186 313 370 387 91 37 246 46 345 21 196 -49 366 -198 431 -377 21
-56 24 -60 48 -54 35 9 35 8 21 52 -41 128 -149 267 -269 347 -128 85 -314
127 -466 106z"/>
<path d="M1000 1327 c-21 -11 -26 -22 -32 -75 -4 -35 -14 -89 -24 -120 -10
-36 -14 -76 -11 -108 5 -48 4 -52 -30 -79 -45 -35 -78 -107 -63 -134 16 -31
12 -40 -22 -43 -29 -3 -37 -11 -65 -63 -40 -75 -51 -136 -30 -168 17 -27 14
-35 -25 -59 -23 -15 -132 -161 -145 -195 -3 -8 3 -13 13 -13 10 0 51 34 92 75
68 69 80 88 164 262 287 598 311 665 252 712 -31 24 -40 25 -74 8z"/>
<path d="M628 1303 c-53 -5 -58 -11 -27 -39 12 -10 32 -41 46 -67 26 -51 24
-72 -7 -117 -14 -19 -16 -30 -8 -44 9 -17 11 -16 35 6 53 49 67 112 37 170
-16 31 -16 31 22 64 l39 33 -45 -1 c-25 -1 -66 -3 -92 -5z"/>
<path d="M748 1267 c-35 -30 -36 -33 -23 -57 30 -54 6 -144 -51 -189 -35 -28
-41 -27 -59 10 -13 24 -14 33 -4 45 10 13 7 21 -19 47 -27 26 -35 30 -50 21
-18 -12 -21 -69 -7 -141 5 -30 8 -31 40 -26 39 6 57 -16 35 -42 -7 -9 -14 -39
-16 -68 -4 -65 -14 -119 -25 -133 -5 -5 -6 -27 -2 -48 5 -31 1 -42 -19 -64
-22 -23 -27 -40 -32 -107 -3 -44 -9 -105 -12 -136 -11 -99 36 -89 87 19 17 37
40 77 51 89 12 12 26 52 33 92 16 84 42 144 96 227 75 115 139 318 139 440 0
39 -1 40 -70 48 -52 5 -57 4 -92 -27z"/>
<path d="M1260 1180 c0 -5 7 -10 16 -10 8 0 12 5 9 10 -3 6 -10 10 -16 10 -5
0 -9 -4 -9 -10z"/>
<path d="M1092 1018 c-22 -40 -38 -75 -36 -77 2 -2 22 4 43 14 l40 17 39 -41
c33 -35 45 -41 79 -41 22 0 54 5 71 11 25 9 30 14 23 27 -7 12 -22 15 -59 13
-48 -2 -51 -1 -84 41 -20 24 -40 56 -45 72 -5 17 -14 31 -20 33 -6 2 -29 -29
-51 -69z"/>
<path d="M1292 1057 c-7 -8 -7 -25 1 -54 9 -37 14 -42 33 -37 18 5 26 -1 38
-24 14 -27 14 -31 -3 -46 -11 -10 -43 -20 -73 -23 -61 -6 -103 10 -136 52
l-20 25 -44 -20 c-39 -17 -46 -25 -63 -76 -23 -68 -23 -69 95 -108 118 -39
204 -48 385 -41 141 5 168 4 230 -14 38 -11 73 -17 78 -14 5 3 52 7 105 8 54
1 105 6 115 10 30 12 15 38 -33 56 -25 10 -79 30 -120 45 -48 18 -95 29 -130
29 -40 0 -54 4 -52 13 1 8 -2 11 -7 8 -5 -4 -12 -2 -15 3 -3 5 -15 7 -26 4
-11 -3 -27 1 -36 8 -9 8 -27 12 -39 11 -13 -2 -26 2 -30 7 -3 6 -16 11 -29 11
-12 0 -26 3 -30 8 -4 4 -20 7 -34 7 -33 0 -41 28 -16 56 9 10 15 21 13 23 -22
20 -125 86 -134 86 -7 0 -17 -6 -23 -13z"/>
<path d="M2393 1023 c-3 -10 -33 -83 -65 -162 -32 -79 -58 -148 -58 -152 0 -5
18 -9 39 -9 34 0 40 4 50 30 10 29 11 30 80 30 69 0 69 0 76 -30 6 -28 10 -30
50 -30 l43 0 -67 168 -67 167 -37 3 c-29 2 -39 -1 -44 -15z m62 -139 c21 -51
20 -54 -20 -54 -19 0 -35 2 -35 5 0 9 32 85 36 85 2 0 11 -16 19 -36z"/>
<path d="M2648 1034 c-5 -4 -8 -81 -8 -171 l0 -163 40 0 40 0 0 60 c0 33 3 60
8 60 4 0 27 -27 50 -60 43 -59 44 -60 94 -60 l50 0 -55 66 -55 66 31 28 c27
24 32 35 32 74 0 36 -6 51 -28 73 -25 25 -35 28 -110 31 -45 2 -85 0 -89 -4z
m122 -64 c5 0 14 -9 20 -20 16 -30 -4 -60 -40 -60 -28 0 -30 3 -30 38 0 43 7
55 28 47 7 -3 18 -5 22 -5z"/>
<path d="M3060 1029 c-32 -13 -78 -56 -96 -91 -18 -35 -18 -111 0 -146 43 -82
140 -119 237 -90 43 12 44 15 28 52 -11 23 -15 24 -66 19 -64 -7 -98 7 -120
50 -41 81 50 172 139 138 29 -11 40 -3 52 35 5 16 0 23 -19 32 -31 14 -120 15
-155 1z"/>
<path d="M3297 1033 c-4 -3 -7 -80 -7 -170 l0 -163 100 0 100 0 0 30 c0 28 -1
29 -57 32 -57 3 -58 3 -61 36 l-3 32 55 0 56 0 0 35 0 35 -55 0 -55 0 0 35 0
35 60 0 60 0 0 35 0 35 -93 0 c-52 0 -97 -3 -100 -7z"/>
<path d="M3550 914 c0 -94 4 -134 16 -159 28 -59 114 -82 190 -50 52 22 64 60
64 210 l0 125 -40 0 -40 0 0 -116 c0 -135 -7 -154 -55 -154 -48 0 -55 19 -55
154 l0 116 -40 0 -40 0 0 -126z"/>
<path d="M3931 1011 c-23 -21 -31 -38 -31 -63 0 -46 22 -74 81 -104 55 -27 68
-46 49 -69 -16 -20 -41 -19 -85 2 -36 17 -37 17 -56 -7 -26 -35 -25 -38 24
-60 83 -38 176 -18 203 45 25 62 5 97 -84 145 -32 17 -47 32 -47 45 0 17 7 20
53 20 51 0 71 12 72 41 0 18 -47 34 -99 34 -40 0 -55 -5 -80 -29z"/>
<path d="M1553 983 c9 -2 23 -2 30 0 6 3 -1 5 -18 5 -16 0 -22 -2 -12 -5z"/>
<path d="M1456 959 c-14 -11 -26 -26 -26 -32 0 -6 7 -2 15 11 9 12 30 26 48
31 23 6 26 9 11 10 -12 1 -33 -8 -48 -20z"/>
<path d="M1666 966 c34 -8 80 -24 103 -35 22 -12 41 -19 41 -16 0 13 -110 55
-156 60 -48 5 -47 5 12 -9z"/>
<path d="M542 944 c-12 -8 -29 -30 -38 -47 -9 -18 -12 -27 -8 -22 5 6 25 27
43 48 38 40 38 46 3 21z"/>
<path d="M574 936 c-17 -13 -17 -16 -4 -28 8 -7 11 -9 7 -4 -4 5 0 18 10 28
19 22 14 23 -13 4z"/>
<path d="M1464 935 c-18 -14 -18 -14 4 -8 12 3 22 9 22 14 0 12 -3 11 -26 -6z"/>
<path d="M1540 921 c0 -11 4 -22 9 -25 4 -3 6 6 3 19 -5 30 -12 33 -12 6z"/>
<path d="M1586 904 c-3 -8 -2 -13 3 -10 5 3 14 0 20 -7 6 -8 21 -13 33 -12 13
1 28 -2 35 -7 8 -7 10 -3 6 11 -6 23 -23 29 -23 9 0 -9 -4 -8 -10 2 -9 13 -11
13 -20 0 -8 -13 -11 -11 -16 8 -7 26 -19 29 -28 6z"/>
<path d="M550 890 c0 -5 5 -10 11 -10 5 0 7 5 4 10 -3 6 -8 10 -11 10 -2 0 -4
-4 -4 -10z"/>
<path d="M540 859 c0 -13 28 -18 33 -6 3 7 -3 13 -14 13 -11 0 -19 -3 -19 -7z"/>
<path d="M1705 860 c3 -5 14 -10 23 -10 15 0 15 2 2 10 -20 13 -33 13 -25 0z"/>
<path d="M472 835 c-21 -46 -44 -183 -34 -201 7 -13 10 -4 11 37 1 49 17 125
36 172 11 26 0 20 -13 -8z"/>
<path d="M1756 844 c-11 -8 -16 -14 -10 -14 13 0 39 18 34 24 -3 2 -14 -2 -24
-10z"/>
<path d="M530 806 c0 -2 7 -9 15 -16 13 -11 14 -10 9 4 -5 14 -24 23 -24 12z"/>
<path d="M385 779 c-10 -15 3 -25 16 -12 7 7 7 13 1 17 -6 3 -14 1 -17 -5z"/>
<path d="M530 760 c0 -5 5 -10 11 -10 5 0 7 -5 4 -10 -4 -6 -11 -8 -16 -5 -15
10 -10 -12 6 -25 13 -11 14 -10 10 2 -3 8 1 21 10 28 8 7 15 18 15 24 0 6 -5
4 -10 -4 -6 -10 -10 -11 -10 -2 0 6 -4 12 -10 12 -5 0 -10 -4 -10 -10z"/>
<path d="M916 721 c-11 -12 -16 -31 -14 -53 3 -28 10 -36 49 -56 42 -21 66
-23 300 -32 418 -16 583 -13 674 10 83 21 135 46 143 69 4 11 -3 13 -34 7 -22
-3 -70 -11 -109 -16 -38 -6 -84 -19 -103 -30 -43 -26 -50 -25 -64 4 -15 35
-61 50 -151 51 -74 0 -80 -2 -101 -27 l-22 -28 -22 23 c-28 28 -115 30 -155 4
-35 -22 -44 -22 -78 7 -17 14 -53 29 -86 36 -32 6 -86 20 -121 30 -77 25 -85
25 -106 1z"/>
<path d="M524 675 c1 -8 5 -18 9 -21 4 -4 1 -14 -5 -23 -8 -10 -4 -9 10 3 23
20 30 32 12 21 -5 -3 -10 3 -10 14 0 12 -4 21 -9 21 -5 0 -8 -7 -7 -15z"/>
<path d="M1315 446 c-80 -81 -176 -137 -276 -161 -81 -19 -218 -19 -289 -1
-52 14 -56 14 -77 -6 -13 -12 -23 -24 -23 -28 0 -18 151 -45 250 -44 192 0
328 60 473 205 48 48 87 93 87 98 0 6 -17 10 -37 9 -33 -1 -48 -11 -108 -72z"/>
<path d="M885 470 c3 -5 8 -10 11 -10 2 0 4 5 4 10 0 6 -5 10 -11 10 -5 0 -7
-4 -4 -10z"/>
<path d="M1081 426 c-9 -10 -8 -16 3 -25 10 -9 16 -8 25 3 9 10 8 16 -3 25
-10 9 -16 8 -25 -3z"/>
</g>
</svg>
